<?xml version="1.0" standalone="no"?>
<!DOCTYPE svg PUBLIC "-//W3C//DTD SVG 20010904//EN"
 "http://www.w3.org/TR/2001/REC-SVG-20010904/DTD/svg10.dtd">
<svg version="1.0" xmlns="http://www.w3.org/2000/svg"
 width="334.000000pt" height="151.000000pt" viewBox="0 0 334.000000 151.000000"
 preserveAspectRatio="xMidYMid meet">

<g transform="translate(0.000000,151.000000) scale(0.100000,-0.100000)"
fill="#000000" stroke="none">
<path d="M2505 1456 c138 -29 258 -57 268 -61 21 -9 22 -50 3 -122 l-14 -51
277 140 c152 78 278 143 280 145 2 1 -236 3 -530 2 l-534 -1 250 -52z"/>
<path d="M241 1308 c-6 -18 -61 -240 -123 -493 -92 -379 -112 -473 -112 -535
0 -119 47 -195 149 -241 36 -17 73 -19 392 -19 322 0 357 2 403 19 99 38 223
143 291 249 22 33 30 40 26 22 -3 -14 -18 -77 -33 -141 -15 -64 -24 -124 -21
-133 6 -14 46 -16 390 -16 417 0 494 7 624 55 84 32 191 103 236 158 73 90
119 215 120 331 1 83 -16 127 -63 173 -70 68 -187 92 -452 93 -93 0 -179 5
-195 11 -102 38 -95 127 15 181 46 22 55 23 364 26 l317 3 9 32 c31 113 54
227 49 241 -6 14 -45 16 -420 16 -379 0 -420 -2 -491 -20 -203 -52 -352 -196
-385 -373 -19 -105 11 -199 86 -267 88 -82 216 -117 452 -126 80 -3 156 -7
168 -10 33 -6 53 -32 53 -69 0 -44 -51 -99 -105 -114 -49 -13 -1525 -16 -1525
-2 0 5 49 213 109 462 60 250 112 469 116 487 l7 32 -220 0 -220 0 -11 -32z"/>
</g>
</svg>
